<svg width="321" height="306" viewBox="0 0 321 306" fill="none" xmlns="http://www.w3.org/2000/svg">
<path d="M166.843 140.505C197.434 140.505 222.233 113.899 222.233 81.0787C222.233 48.2584 197.434 21.6523 166.843 21.6523C136.251 21.6523 111.452 48.2584 111.452 81.0787C111.452 113.899 136.251 140.505 166.843 140.505Z" stroke="#C13D27" strokeWidth="32" strokeMiterlimit="10"/>
<path d="M160.5 141.038C191.091 141.038 215.89 114.432 215.89 81.6113C215.89 48.7911 191.091 22.185 160.5 22.185C129.909 22.185 105.11 48.7911 105.11 81.6113C105.11 114.432 129.909 141.038 160.5 141.038Z" stroke="#EE4D2D" strokeWidth="32" strokeMiterlimit="10"/>
<path d="M272.116 83.2037V246.608C272.116 253.62 266.154 259.307 258.797 259.307H62.2027C54.8464 259.307 48.8842 253.62 48.8842 246.608V83.2037C48.8842 76.1912 54.8464 70.5047 62.2027 70.5047H258.797C266.154 70.5047 272.116 76.1912 272.116 83.2037Z" fill="#EFDCC2"/>
<path d="M105.11 183.677C120.875 183.677 133.655 171.494 133.655 156.465C133.655 141.437 120.875 129.254 105.11 129.254C89.3446 129.254 76.5645 141.437 76.5645 156.465C76.5645 171.494 89.3446 183.677 105.11 183.677Z" fill="#0E0F13"/>
<path d="M216.309 183.677C232.075 183.677 244.855 171.494 244.855 156.465C244.855 141.437 232.075 129.254 216.309 129.254C200.544 129.254 187.764 141.437 187.764 156.465C187.764 171.494 200.544 183.677 216.309 183.677Z" fill="#0E0F13"/>
<path d="M272.116 83.2037V103.723H48.8842V83.2037C48.8842 76.1912 54.8464 70.5047 62.2027 70.5047H258.797C266.154 70.5047 272.116 76.1912 272.116 83.2037Z" fill="#EE4D2D"/>
<path d="M222.269 194.744C225.354 194.676 230.995 194.134 236.862 190.916C247.25 185.221 250.538 175.432 251.266 173.029" stroke="#0E0F13" strokeWidth="9" strokeMiterlimit="10" strokeLinecap="round" strokeLinejoin="round"/>
<path d="M235.442 199.246C236.003 198.158 236.874 196.089 236.761 193.432C236.562 188.726 233.435 185.714 232.654 185" stroke="#0E0F13" strokeWidth="3.7104" strokeMiterlimit="10" strokeLinecap="round" strokeLinejoin="round"/>
<path d="M243.526 194.114C244.088 193.026 244.959 190.958 244.846 188.301C244.647 183.594 241.52 180.582 240.738 179.868" stroke="#0E0F13" strokeWidth="3.7104" strokeMiterlimit="10" strokeLinecap="round" strokeLinejoin="round"/>
<path d="M67.0028 137.133C66.7829 136.958 70.2128 131.359 75.8155 126.517C87.4428 116.464 102.307 114.96 110.222 114.832C107.021 115.172 102.869 115.824 98.1576 117.133C96.0058 117.731 90.2694 119.354 84.5211 122.434C73.1256 128.537 67.2822 137.36 67.0028 137.133Z" fill="#0E0F13"/>
<path d="M258.372 137.133C258.592 136.958 255.162 131.359 249.56 126.517C237.932 116.464 223.068 114.96 215.153 114.832C218.354 115.172 222.506 115.824 227.217 117.133C229.369 117.731 235.106 119.354 240.854 122.434C252.25 128.537 258.096 137.36 258.372 137.133Z" fill="#0E0F13"/>
<path d="M160.824 188.173L150.662 214.52C150.207 215.696 151.123 216.943 152.436 216.943H172.76C174.074 216.943 174.987 215.696 174.535 214.52L164.373 188.173C163.764 186.601 161.43 186.601 160.824 188.173Z" fill="#D8C7B2"/>
</svg>
