<svg width="437" height="426" viewBox="0 0 437 426" fill="none" xmlns="http://www.w3.org/2000/svg">
<path d="M227.135 195.605C268.781 195.605 302.542 158.565 302.542 112.874C302.542 67.1833 268.781 30.1434 227.135 30.1434C185.489 30.1434 151.728 67.1833 151.728 112.874C151.728 158.565 185.489 195.605 227.135 195.605Z" stroke="#C13D27" strokeWidth="32" strokeMiterlimit="10"/>
<path d="M218.5 196.347C260.146 196.347 293.907 159.307 293.907 113.616C293.907 67.9248 260.146 30.885 218.5 30.885C176.854 30.885 143.093 67.9248 143.093 113.616C143.093 159.307 176.854 196.347 218.5 196.347Z" stroke="#EE4D2D" strokeWidth="32" strokeMiterlimit="10"/>
<path d="M370.451 115.833V343.317C370.451 353.079 362.334 360.996 352.319 360.996H84.6809C74.6663 360.996 66.5494 353.079 66.5494 343.317V115.833C66.5494 106.07 74.6663 98.1536 84.6809 98.1536H352.319C362.334 98.1536 370.451 106.07 370.451 115.833Z" fill="#EFDCC2"/>
<path d="M143.093 255.706C164.555 255.706 181.954 238.746 181.954 217.824C181.954 196.902 164.555 179.942 143.093 179.942C121.631 179.942 104.233 196.902 104.233 217.824C104.233 238.746 121.631 255.706 143.093 255.706Z" fill="#0E0F13"/>
<path d="M294.477 255.706C315.939 255.706 333.338 238.746 333.338 217.824C333.338 196.902 315.939 179.942 294.477 179.942C273.015 179.942 255.617 196.902 255.617 217.824C255.617 238.746 273.015 255.706 294.477 255.706Z" fill="#0E0F13"/>
<path d="M370.451 115.833V144.398H66.5494V115.833C66.5494 106.07 74.6663 98.1536 84.6809 98.1536H352.319C362.334 98.1536 370.451 106.07 370.451 115.833Z" fill="#EE4D2D"/>
<path d="M302.59 271.114C306.79 271.019 314.47 270.265 322.457 265.785C336.599 257.856 341.074 244.228 342.066 240.883" stroke="#0E0F13" strokeWidth="9" strokeMiterlimit="10" strokeLinecap="round" strokeLinejoin="round"/>
<path d="M320.523 277.381C321.288 275.867 322.474 272.987 322.32 269.287C322.049 262.736 317.792 258.543 316.728 257.549" stroke="#0E0F13" strokeWidth="3.7104" strokeMiterlimit="10" strokeLinecap="round" strokeLinejoin="round"/>
<path d="M331.529 270.238C332.294 268.723 333.48 265.844 333.326 262.144C333.055 255.592 328.798 251.399 327.734 250.405" stroke="#0E0F13" strokeWidth="3.7104" strokeMiterlimit="10" strokeLinecap="round" strokeLinejoin="round"/>
<path d="M91.2156 190.911C90.9162 190.667 95.5856 182.872 103.213 176.131C119.042 162.136 139.278 160.042 150.053 159.864C145.695 160.338 140.042 161.245 133.629 163.067C130.699 163.9 122.89 166.16 115.065 170.447C99.551 178.944 91.596 191.227 91.2156 190.911Z" fill="#0E0F13"/>
<path d="M351.74 190.911C352.04 190.667 347.37 182.872 339.743 176.131C323.914 162.136 303.679 160.042 292.903 159.864C297.261 160.338 302.914 161.245 309.327 163.067C312.257 163.9 320.066 166.16 327.892 170.447C343.405 178.944 351.364 191.227 351.74 190.911Z" fill="#0E0F13"/>
<path d="M218.941 261.966L205.107 298.646C204.488 300.283 205.734 302.018 207.522 302.018H235.191C236.979 302.018 238.222 300.283 237.607 298.646L223.772 261.966C222.943 259.777 219.766 259.777 218.941 261.966Z" fill="#D8C7B2"/>
</svg>
